<?xml version="1.0" encoding="utf-8"?>
<!-- Generator: Adobe Illustrator 21.0.0, SVG Export Plug-In . SVG Version: 6.00 Build 0)  -->
<svg version="1.1" id="圖層_1" xmlns="http://www.w3.org/2000/svg" xmlns:xlink="http://www.w3.org/1999/xlink" x="0px" y="0px"
	 viewBox="0 0 24 24" style="enable-background:new 0 0 24 24;" xml:space="preserve">
<style type="text/css">
	.st0{fill:#0F5756;}
</style>
<g>
	<path id="facebook-4_1_" class="st0" d="M12,1.9c5.6,0,10.1,4.5,10.1,10.1S17.6,22.1,12,22.1S1.9,17.6,1.9,12S6.4,1.9,12,1.9 M12,0
		C5.4,0,0,5.4,0,12s5.4,12,12,12s12-5.4,12-12S18.6,0,12,0L12,0z"/>
	<path class="st0" d="M14.6,8.7c0,0-0.7,0-1.1,0C13,8.7,13,8.9,13,9.4c0,0.4,0,1,0,1h1.6L14.4,12H13v5.8h-2.5V12H8.8v-1.6h1.6
		c0,0,0-0.7,0-1.9c0-1.4,0.8-2.2,2.5-2.2c0.3,0,1.6,0,1.6,0L14.6,8.7L14.6,8.7z"/>
</g>
</svg>
