<?xml version="1.0" encoding="utf-8"?>
<!-- Generator: Adobe Illustrator 21.0.0, SVG Export Plug-In . SVG Version: 6.00 Build 0)  -->
<svg version="1.1" id="圖層_1" xmlns="http://www.w3.org/2000/svg" xmlns:xlink="http://www.w3.org/1999/xlink" x="0px" y="0px"
	 viewBox="0 0 30 30" style="enable-background:new 0 0 30 30;" xml:space="preserve">
<style type="text/css">
	.st0{fill:#3B5997;}
	.st1{fill:#FFFFFF;}
</style>
<path id="facebook-4" class="st0" d="M15,0C6.7,0,0,6.7,0,15c0,8.3,6.7,15,15,15s15-6.7,15-15C30,6.7,23.3,0,15,0z"/>
<path class="st1" d="M18.8,10c0,0-1.1,0-1.7,0c-0.7,0-0.8,0.3-0.8,1c0,0.6,0,1.5,0,1.5h2.5L18.5,15h-2.2v8.8h-3.8V15H10v-2.5h2.5
	c0,0,0-1,0-2.9c0-2.2,1.2-3.4,3.8-3.4c0.4,0,2.5,0,2.5,0V10z"/>
</svg>
