<?xml version="1.0" encoding="utf-8"?>
<!-- Generator: Adobe Illustrator 21.0.0, SVG Export Plug-In . SVG Version: 6.00 Build 0)  -->
<svg version="1.1" id="圖層_1" xmlns="http://www.w3.org/2000/svg" xmlns:xlink="http://www.w3.org/1999/xlink" x="0px" y="0px"
	 viewBox="0 0 50 50" style="enable-background:new 0 0 50 50;" xml:space="preserve">
<style type="text/css">
	.st0{fill:#FFFFFF;}
</style>
<g>
	<path id="facebook-4_1_" class="st0" d="M25,4c11.7,0,21,9.4,21,21s-9.4,21-21,21S4,36.7,4,25S13.3,4,25,4 M25,0
		C11.3,0,0,11.3,0,25s11.3,25,25,25s25-11.3,25-25S38.8,0,25,0L25,0z"/>
	<path class="st0" d="M30.4,18.1c0,0-1.5,0-2.3,0c-1,0-1,0.4-1,1.5c0,0.8,0,2.1,0,2.1h3.3L30,25h-2.9v12.1h-5.2V25h-3.5v-3.3h3.3
		c0,0,0-1.5,0-4c0-2.9,1.7-4.6,5.2-4.6c0.6,0,3.3,0,3.3,0v5H30.4z"/>
</g>
</svg>
