<?xml version="1.0" encoding="utf-8"?>
<!-- Generator: Adobe Illustrator 21.0.0, SVG Export Plug-In . SVG Version: 6.00 Build 0)  -->
<svg version="1.1" id="圖層_1" xmlns="http://www.w3.org/2000/svg" xmlns:xlink="http://www.w3.org/1999/xlink" x="0px" y="0px"
	 viewBox="0 0 24 24" style="enable-background:new 0 0 24 24;" xml:space="preserve">
<style type="text/css">
	.st0{fill:#0F5756;}
</style>
<path class="st0" d="M12,0C8.9,0,6,2.6,6,5.7s2.6,6.9,6,12.3c3.4-5.4,6-9.1,6-12.3C18,2.6,15.1,0,12,0z M12,8c-1.1,0-2-0.9-2-2
	s0.9-2,2-2s2,0.9,2,2S13.1,8,12,8z M16,22.5c0,0.8-1.8,1.5-4,1.5s-4-0.7-4-1.5S9.8,21,12,21S16,21.7,16,22.5z"/>
</svg>
