<?xml version="1.0" encoding="utf-8"?>
<!-- Generator: Adobe Illustrator 21.0.0, SVG Export Plug-In . SVG Version: 6.00 Build 0)  -->
<svg version="1.1" id="圖層_1" xmlns="http://www.w3.org/2000/svg" xmlns:xlink="http://www.w3.org/1999/xlink" x="0px" y="0px"
	 viewBox="0 0 120 46" style="enable-background:new 0 0 120 46;" xml:space="preserve">
<style type="text/css">
	.st0{fill:#0F5756;}
</style>
<g>
	<g>
		<rect x="73.2" y="1.7" transform="matrix(0.7071 -0.7071 0.7071 0.7071 18.8127 55.7459)" class="st0" width="7" height="7"/>
		<path class="st0" d="M107.1,43.9L106,43l-0.9-0.6c-0.2-0.2-0.4-0.2-0.6,0l-0.9,0.6l-1.1,0.9h-1.8h-11V16.2h6.6c0,0,3.7,0,4.5,0
			c0.7-0.7,0.4-1.5,0.1-1.8l-1.1-0.9L99,13c-0.2-0.2-0.4-0.2-0.6,0l-0.9,0.6l-1.1,0.9H68.4v1.8h16.2v27.7h-19v-35h-5.4v35H47.7l0,0
			v-5.7h-5.4v5.7H31.5V27.4H41h1.4h4V6.2H41V7h-9.5h-5.4v1.7v35.2h-11v-9.3h2.8c0,0,3.7,0,4.5,0c0.7-0.7,0.4-1.5,0.1-1.8L21.4,32
			l-0.9-0.6c-0.2-0.2-0.4-0.2-0.6,0L19,32l-1.1,0.9h-2.8v-9.3H9.8v20.3H5.4v-5.7H0v5.7v1.8h47.6l0,0h55c0,0,3.7,0,4.5,0
			C107.8,45,107.4,44.2,107.1,43.9z M41,8.8v16.8h-9.5V8.8L41,8.8z"/>
		<path class="st0" d="M17.8,21.8c0,0,3.7,0,4.5,0c0.7-0.7,0.4-1.5,0.1-1.8l-1.1-0.9l-0.9-0.6c-0.2-0.2-0.4-0.2-0.6,0L19,19.1
			L17.8,20h-2.7v-7.4H18c0,0,3.7,0,4.5,0c0.7-0.7,0.4-1.5,0.1-1.8l-1.1-0.9l-0.9-0.6c-0.2-0.2-0.4-0.2-0.6,0l-0.9,0.6L18,10.8h-2.9
			V1.6H9.8v9.2H3.2v1.8h6.6V20H0v1.8H17.8L17.8,21.8z"/>
	</g>
	<g>
		<path class="st0" d="M117.4,5.4h-0.3c0-0.2-0.1-0.2-0.2-0.4l0.2-0.2c0.1-0.1,0.1-0.2,0-0.2c-0.1-0.1-0.2-0.1-0.2,0l-0.2,0.2
			c-0.1-0.1-0.2-0.2-0.4-0.2V4.3c0-0.1-0.1-0.2-0.2-0.2c-0.1,0-0.2,0.1-0.2,0.2v0.3c-0.2,0-0.2,0.1-0.4,0.2l-0.2-0.2
			c-0.1-0.1-0.2-0.1-0.2,0c-0.1,0.1-0.1,0.2,0,0.2l0.2,0.2c-0.1,0.1-0.2,0.2-0.2,0.4h-0.3c-0.1,0-0.2,0.1-0.2,0.2s0.1,0.2,0.2,0.2
			h0.3c0,0.2,0.1,0.2,0.2,0.4l-0.2,0.2c-0.1,0.1-0.1,0.2,0,0.2c0,0,0.1,0.1,0.2,0.1c0.1,0,0.1,0,0.2-0.1l0.2-0.2
			c0.1,0.1,0.2,0.2,0.4,0.2v0.3c0,0.1,0.1,0.2,0.2,0.2c0.1,0,0.2-0.1,0.2-0.2V6.5c0.2,0,0.2-0.1,0.4-0.2l0.2,0.2
			c0,0,0.1,0.1,0.2,0.1c0.1,0,0.1,0,0.2-0.1c0.1-0.1,0.1-0.2,0-0.2l-0.2-0.2c0.1-0.1,0.2-0.2,0.2-0.4h0.3c0.1,0,0.2-0.1,0.2-0.2
			C117.6,5.4,117.5,5.4,117.4,5.4z M116.6,5.9L116.6,5.9c-0.1,0.1-0.2,0.2-0.4,0.2c-0.2,0-0.3-0.1-0.4-0.2l0,0
			c-0.1-0.1-0.2-0.2-0.2-0.4s0.1-0.3,0.2-0.4l0,0c0.1-0.1,0.2-0.2,0.4-0.2c0.2,0,0.3,0.1,0.4,0.2l0,0c0.1,0.1,0.2,0.2,0.2,0.4
			C116.8,5.7,116.7,5.8,116.6,5.9z"/>
		<path class="st0" d="M113.9,1.6c-3.4,0-6.1,2.7-6.1,6.1s2.7,6.1,6.1,6.1c3.4,0,6.1-2.7,6.1-6.1S117.3,1.6,113.9,1.6z M117.4,9
			c-0.2-0.2-0.5-0.4-0.7-0.6c-0.2-0.2-0.5-0.5-0.7-0.7c-0.7-0.6-1.4-0.9-2.1-0.9c-0.7,0-1.4,0.3-2.1,0.9c-0.2,0.2-0.5,0.5-0.7,0.7
			c-0.2,0.2-0.5,0.5-0.7,0.6c-0.4,0.3-0.8,0.5-1.2,0.6c-0.2-0.6-0.4-1.3-0.4-2c0-2.8,2.2-5.1,5.1-5.1c2.8,0,5.1,2.2,5.1,5.1
			c0,0.7-0.2,1.4-0.4,1.9C118.2,9.6,117.7,9.4,117.4,9z"/>
	</g>
	<g>
		<path class="st0" d="M112.6,40c-1.6,0-2.7,1.3-2.7,2.9c0,1.5,1.1,2.9,2.7,2.9c1.5,0,2.6-1.4,2.6-2.9C115.3,41.3,114.2,40,112.6,40
			z M112.6,44.2c-1.3,0-1.9-0.6-1.9-1.4s0.6-1.3,1.9-1.3c1.3,0,1.9,0.5,1.9,1.3C114.5,43.6,113.8,44.2,112.6,44.2z"/>
		<path class="st0" d="M110.9,32.2L110.9,32.2c0.1,0.1,0.1,0.1,0.2,0.1c0.2,0,0.2-0.1,0.2-0.2c0-0.1,0-0.1-0.1-0.2l0,0
			c-0.4-0.5-0.6-1-0.6-1.6c0-1,0.8-1.4,2.1-1.4c0.3,0,0.7,0,1,0.2c0.3,0.1,0.7,0.3,0.9,0.6c0.1,0.2,0.1,0.5,0,0.7
			c-0.1,0.2-0.2,0.4-0.4,0.6c-0.1,0.1-0.2,0.2-0.4,0.2c-0.1,0.1-0.2,0.2-0.2,0.2c-0.2,0.2,0,0.6,0.3,0.7c0.2,0.1,0.3,0,0.5-0.1
			c0.2-0.2,0.4-0.4,0.6-0.6c0.2-0.2,0.2-0.6,0.3-0.8c0.2-0.6,0.1-1.2-0.2-1.8c-0.2-0.6-0.6-1-1.2-1.2c-0.4-0.2-0.9-0.3-1.3-0.3
			c-1.6,0-2.6,1-2.6,2.6C110,31,110.3,31.8,110.9,32.2z"/>
		<path class="st0" d="M117.1,32.9c0,0.6,0.2,0.7-0.1,0.8c-0.2,0.1-0.6,0.1-1.4,0.1h-4c-1,0-1.1-0.1-1.1-0.9h-0.4v3l0,0
			c0,0.1,0.1,0.2,0.2,0.2c0.1,0,0.2-0.1,0.2-0.2l0,0l0,0l0,0l0,0c0.1-0.8,0.2-0.9,1.2-0.9h1.3h1.6h3.3l-0.4-2.2H117.1z"/>
		<path class="st0" d="M114.1,35.4c0.1,0,0.2,0.1,0.2,0.2c0.3,0.2,0.4,0.6,0.4,1c0,0.7-0.5,1-1.9,1h-1.2c-1,0-1.1-0.1-1.1-0.9h-0.4
			v3l0,0l0,0c0,0.1,0.1,0.2,0.2,0.2c0.1,0,0.2-0.1,0.2-0.2l0,0l0,0c0.1-0.8,0.2-0.8,1.2-0.8h1.5c0.6,0,1.2-0.2,1.6-0.6
			c0.4-0.3,0.6-0.9,0.6-1.5c0-0.6-0.2-1-0.6-1.4H114.1z"/>
		<path class="st0" d="M116.1,16.8h-4.5c-0.9,0-1.1-0.2-1.1-1h-0.4v3.4l0,0c0,0.1,0.1,0.2,0.2,0.2c0.1,0,0.2-0.1,0.2-0.2l0,0
			c0-0.8,0.2-1,1.2-1h1.3h0.9h2.2c1,0,1.4,0.2,1.5,1l0,0c0,0.1,0.1,0.2,0.2,0.2c0.1,0,0.2-0.1,0.2-0.2v-3.4h-0.4
			C117.5,16.6,117,16.8,116.1,16.8z"/>
		<path class="st0" d="M111,22.6l3.5-2.9l1.8,1.8c0.8,0.8,1.2,1,1.3,1.5l0,0c0,0.1,0.1,0.2,0.2,0.2c0.1,0,0.2-0.1,0.2-0.2l0,0v-2.6
			h-0.4c0,0.5-0.1,0.6-0.2,0.6s-0.2-0.1-0.4-0.2l-2.8-2.3h-1l0.2,0.2l-2.2,1.8c-0.4,0.3-0.5,0.3-0.6,0.3c-0.2,0-0.2-0.2-0.2-0.7H110
			v3.6v0.1v3l0,0l0,0c0,0.1,0.1,0.2,0.2,0.2c0.1,0,0.2-0.1,0.2-0.2l0,0c0-0.7,0.2-0.9,1.2-0.9h4.2l-0.4-2.2H115
			c0,0.6-0.1,0.8-0.4,0.9c-0.2,0-1.2,0.1-1.9,0.1h-1.2c-0.9,0-1.1-0.2-1.1-0.9v-0.1C110.5,23.2,110.6,22.9,111,22.6z"/>
		
			<rect x="117.2" y="24.6" transform="matrix(0.7071 -0.7071 0.7071 0.7071 16.6519 90.8332)" class="st0" width="1.5" height="1.5"/>
	</g>
</g>
</svg>
