<?xml version="1.0" encoding="utf-8"?>
<!-- Generator: Adobe Illustrator 21.0.0, SVG Export Plug-In . SVG Version: 6.00 Build 0)  -->
<svg version="1.1" id="圖層_1" xmlns="http://www.w3.org/2000/svg" xmlns:xlink="http://www.w3.org/1999/xlink" x="0px" y="0px"
	 viewBox="0 0 70 122" style="enable-background:new 0 0 70 122;" xml:space="preserve">
<style type="text/css">
	.st0{fill:#0F5756;}
</style>
<g>
	
		<rect x="28.1" y="53.9" transform="matrix(0.7071 -0.7071 0.7071 0.7071 -31.4347 39.3407)" class="st0" width="7.4" height="7.4"/>
	<path class="st0" d="M60.8,98.2l-0.9-0.7c-0.2-0.1-0.4-0.1-0.6,0l-0.9,0.7l-1.2,0.9h-1.8H45.2V69.4h6.1c0,0,3.9,0,4.7,0
		c0.8-0.8,0.4-1.6,0.1-1.9l-1.2-0.9L54,65.9c-0.2-0.1-0.4-0.1-0.6,0l-0.9,0.7l-1.2,0.9H21.4v1.9h18.1v29.8h-20V61.6h-5.6v37.5H0v1.9
		h57.1c0,0,3.9,0,4.7,0c0.8-0.8,0.4-1.6,0.1-1.9L60.8,98.2z"/>
	<path class="st0" d="M21.1,34.5h3.5c0,0,3.9,0,4.7,0c0.8-0.8,0.4-1.6,0.1-1.9l-1.2-0.9L27.3,31c-0.2-0.1-0.4-0.1-0.6,0l-0.9,0.7
		l-1.2,0.9h-3.5v-9.8h-5.6v22.1h-4.7v-6.3H5.2v6.3v1.9h49.9v-8.2h-5.7v0.1V45h-11V27.8h11h4.2V5.1H48v0.7h-9.6h-5.6v1.9V45H21.1
		V34.5z M38.4,7.7L38.4,7.7H48v18.2h-9.6V7.7z"/>
	<path class="st0" d="M29.3,20.9c0.8-0.8,0.4-1.6,0.1-1.9l-1.2-0.9l-0.9-0.7c-0.2-0.1-0.4-0.1-0.6,0l-0.9,0.7L24.6,19h-3.5v-7.7h3.5
		c0,0,3.9,0,4.7,0c0.8-0.8,0.4-1.6,0.1-1.9l-1.2-0.9l-0.9-0.7c-0.2-0.1-0.4-0.1-0.6,0l-0.9,0.7l-1.2,0.9h-3.5V0.1h-5.6v9.3h-7v1.9h7
		V19H5.1v1.9h19.5C24.6,20.9,28.5,20.9,29.3,20.9z"/>
	<path class="st0" d="M17.9,120.9c-0.2-0.2-0.4-0.4-0.7-0.7c-0.2-0.3-0.4-0.6-0.6-1c-0.2-0.4-0.4-0.8-0.7-1.2
		c0.2-0.1,0.4-0.2,0.6-0.3c0.2-0.1,0.3-0.3,0.5-0.5c0.1-0.2,0.3-0.4,0.3-0.7c0.1-0.3,0.1-0.6,0.1-0.9c0-0.8-0.2-1.4-0.7-1.7
		c-0.5-0.4-1.2-0.6-2.2-0.6c-0.4,0-0.8,0-1.2,0c-0.4,0-0.8,0-1.1,0.1v8.3h1.6v-3.4v-0.8v-3.3c0.1,0,0.1,0,0.2,0s0.2,0,0.2,0
		c0.2,0,0.5,0,0.6,0.1c0.2,0.1,0.3,0.1,0.5,0.3c0.1,0.1,0.2,0.3,0.3,0.5c0.1,0.2,0.1,0.4,0.1,0.7s0,0.5,0,0.6c0,0.2-0.1,0.3-0.1,0.4
		c0,0.1-0.1,0.2-0.2,0.3c-0.1,0.1-0.1,0.1-0.2,0.2c-0.1,0.1-0.3,0.2-0.5,0.2c-0.1,0-0.3,0.1-0.4,0.1v0.8l0.4,0.9
		c0.3,0.6,0.6,1.1,0.8,1.4s0.4,0.6,0.6,0.8c0.2,0.2,0.4,0.3,0.6,0.4c0.2,0.1,0.5,0.1,0.8,0.1c0.2,0,0.4,0,0.6,0
		c0.2,0,0.3-0.1,0.4-0.1v-0.5h-0.1C18.3,121.2,18.1,121.1,17.9,120.9z"/>
	<path class="st0" d="M25.8,118.7c-0.4-0.2-0.7-0.4-1.2-0.5c-0.3-0.1-0.5-0.1-0.7-0.3c-0.2-0.2-0.3-0.5-0.1-0.7
		c0.1-0.1,0.2-0.2,0.4-0.2c0.3,0,0.6,0.1,0.9,0.1c0.1,0,0.9,0.2,0.9,0.3l0.2-1.1c-0.2,0-0.3,0-0.5-0.1c-0.4,0-0.8-0.1-1.2-0.1
		s-0.7,0.1-1,0.2c-0.5,0.3-0.9,0.7-1,1.3c0,0.1,0,0.1,0,0.2c0,0.3,0.1,0.6,0.2,0.8c0.1,0.1,0.2,0.2,0.3,0.3c0.1,0.1,0.2,0.2,0.4,0.2
		c0.3,0.2,0.7,0.3,1,0.4c0.2,0.1,0.3,0.1,0.4,0.2c0.1,0.1,0.2,0.2,0.3,0.3c0.1,0.3,0.1,0.6-0.2,0.8c-0.2,0.1-0.4,0.2-0.6,0.1
		c-0.6-0.1-1.2-0.4-1.7-0.8c-0.1,0.3-0.3,0.7-0.4,1v0.1l0.2,0.1c1.1,0.4,2.4,0.6,3.3-0.2c0.4-0.4,0.7-0.9,0.7-1.5
		C26.5,119.3,26.2,118.9,25.8,118.7z"/>
	<path class="st0" d="M38.5,116.5c-0.1-0.1-0.3-0.2-0.5-0.3c-0.2-0.1-0.4-0.1-0.6-0.1c-0.2,0-0.4,0-0.6,0.1
		c-0.2,0.1-0.4,0.1-0.6,0.2c-0.1,0.1-0.2,0.1-0.4,0.2v0.7h0.1c0.1,0,0.2-0.1,0.3-0.1c0.1,0,0.2,0,0.3,0c0.3,0,0.4,0.1,0.5,0.2
		c0.1,0.2,0.2,0.4,0.2,0.7v3.7h1.6v-4c0-0.3,0-0.5-0.1-0.7C38.7,116.8,38.6,116.6,38.5,116.5z"/>
	<rect x="40.7" y="116.7" class="st0" width="1.6" height="5.1"/>
	<polygon class="st0" points="40.5,115 41.4,116 42.5,115 41.4,113.9 	"/>
	<rect x="19.4" y="116.7" class="st0" width="1.6" height="5.1"/>
	<polygon class="st0" points="19.2,115 20.2,116 21.2,115 20.2,113.9 	"/>
	<polygon class="st0" points="44.1,121.8 45.6,121.8 45.6,113 44.1,113.4 	"/>
	<path class="st0" d="M33.8,113.7C33.8,113.7,33.8,113.7,33.8,113.7v8.1h1.6v-8c0-0.5,0-0.9,0-1.4c-0.5,0-1.1,0.1-1.6,0.2
		C33.8,113,33.8,113.3,33.8,113.7z"/>
	<polygon class="st0" points="49,112.3 47.4,112.6 47.4,121.8 48.8,121.8 49,121.8 50.1,121.8 50.1,120.9 49,120.9 	"/>
	<path class="st0" d="M30.2,121.1c-0.4-0.2-0.7-0.5-0.9-0.8c-0.1-0.2-0.2-0.4-0.3-0.7l3.1-0.4c0.3,0,0.3-0.1,0.3-0.3
		c0-0.3-0.1-0.7-0.1-1c-0.1-0.4-0.3-0.8-0.7-1.1c-0.4-0.3-0.9-0.5-1.4-0.5c-0.7,0-1.4,0.2-1.9,0.7c-0.6,0.6-0.9,1.5-0.8,2.4
		c0.1,1.6,1.3,2.6,3,2.5c0.4,0,0.9-0.2,1.2-0.4c0.2-0.1,0.4-0.2,0.5-0.4c0,0,0.5-0.4,0.4-0.5c0-0.1-0.1-0.2-0.2-0.3
		C31.8,120.9,31.1,121.4,30.2,121.1z M29.8,117.4c1.3-0.2,1.2,1.1,1.2,1.1l-2,0.3C29,118.7,28.9,117.5,29.8,117.4z"/>
	<path class="st0" d="M64.1,40.4h1.6h0.5h2.7c0.1,0,0.2,0.1,0.2,0.2v0.7c0,1-0.5,1.4-1.4,1.4c-1,0-1.5-0.5-1.5-1.7v-0.4h-0.5v0.6
		c0,1.9,0.7,2.9,2,2.9c1.1-0.1,1.8-1,1.8-2.8v-3.1h-0.4c0,0.7-0.2,0.8-1,0.8H64c-0.8,0-1-0.1-1-0.9h-0.4v3.6H63
		C63,40.6,63.2,40.4,64.1,40.4z"/>
	<path class="st0" d="M69.3,45.1c-0.4,0.1-0.7,0.4-0.7,0.7c0,0.4,0.3,0.7,0.7,0.7c0.4,0,0.7-0.3,0.7-0.7
		C70,45.4,69.7,45.1,69.3,45.1z"/>
	<path class="st0" d="M64,46.5h3.4l-0.3-2.1h-0.3c0,0.5-0.1,0.7-0.4,0.8c-0.2,0-0.6,0.1-1.3,0.1H64c-0.8,0-1-0.1-1-0.8h-0.4v2.8H63
		C62.9,46.6,63.1,46.5,64,46.5z"/>
	<path class="st0" d="M63,50.9l0.3-0.2c-0.2-0.2-0.3-0.4-0.3-0.6c0-0.4,0.3-0.5,1-0.5h2.8v1h0.5v-1h1.1v-0.5c-0.5-0.2-1-0.7-1.2-1.4
		h-0.4v0.7h-3.3c-0.7,0-1.1,0.5-1.1,1.3C62.4,50.3,62.6,50.7,63,50.9z"/>
	<path class="st0" d="M62.3,54.9c0,0.4,0.2,0.8,0.5,1l0.2-0.1c-0.1,0-0.1-0.1-0.1-0.1c0-0.2,0.3-0.3,0.8-0.3h2
		c1.1,0,1.6-0.5,1.6-1.9c0-1.3-0.4-1.9-0.9-1.9c-0.4,0-0.6,0.2-0.6,0.5c0,0.3,0.2,0.5,0.5,0.6c0.4,0.2,0.6,0.3,0.6,0.6
		c0,0.5-0.3,0.8-1,0.8h-0.4H65h-0.9c-0.5,0-1-0.4-1-1c0-0.3,0.2-0.5,0.6-0.5c0.4,0,0.7,0.4,1.1,1.3h0.5l-0.5-1.1
		c-0.4-1.1-0.9-1.5-1.4-1.5c-0.7,0-1.1,0.5-1.1,1.2s0.3,1.3,1,1.6C62.7,54.1,62.3,54.4,62.3,54.9z"/>
	<polygon class="st0" points="65.5,59.7 64.4,60.8 63.2,59.7 62.6,60.3 63.7,61.4 62.6,62.6 63.2,63.2 64.4,62.1 65.5,63.2 
		66.1,62.6 65,61.4 66.1,60.3 	"/>
	<path class="st0" d="M64.9,78c1.4,0,2.4-1.2,2.4-2.6c0-1.4-1-2.6-2.4-2.6c-1.5,0-2.5,1.2-2.5,2.6C62.4,76.8,63.4,78,64.9,78z
		 M64.8,74.2c1.1,0,1.9,0.5,1.9,1.2c0,0.7-0.8,1.2-1.9,1.2c-1.1,0-1.9-0.5-1.9-1.2C62.9,74.7,63.7,74.2,64.8,74.2z"/>
	<path class="st0" d="M63.7,87.4c0.7-0.1,1.1-0.4,1.6-1.4c0.4-0.7,0.6-1,1-1c0.3,0,0.5,0.2,0.5,0.5c0,0.4-0.3,0.7-1,1v0.4h1.4v-0.2
		L67,86.5c0.2-0.3,0.3-0.7,0.3-1c0-0.8-0.6-1.5-1.4-1.5c-0.6,0-1.1,0.4-1.6,1.3c-0.4,0.7-0.7,1-1,1s-0.5-0.3-0.5-0.7
		c0-0.6,0.4-1,1.2-1.2V84h-1.6v0.3l0.3,0.2c-0.3,0.3-0.4,0.8-0.4,1.3C62.3,86.8,62.8,87.4,63.7,87.4z"/>
	<path class="st0" d="M67.1,88h-0.4v0.7h-3.3c-0.7,0-1.1,0.5-1.1,1.3c0,0.6,0.2,1,0.6,1.2l0.3-0.3c-0.2-0.1-0.3-0.3-0.3-0.5
		c0-0.4,0.3-0.5,1-0.5h2.8v1h0.5v-1h1.1v-0.5C67.8,89.2,67.3,88.7,67.1,88z"/>
	<path class="st0" d="M63.1,83L63.1,83C63,83.1,63,83.1,63.1,83z"/>
	<path class="st0" d="M62.3,82.1c0,0.4,0.2,0.8,0.5,1L63,83c0,0,0-0.1,0-0.1c0-0.2,0.3-0.3,0.8-0.3h2c1.1,0,1.6-0.5,1.6-1.9
		c0-1.3-0.4-1.9-0.9-1.9c-0.4,0-0.6,0.2-0.6,0.5s0.2,0.5,0.5,0.6c0.4,0.2,0.6,0.3,0.6,0.6c0,0.5-0.3,0.8-1,0.8h-0.4H65h-0.9
		c-0.5,0-1-0.4-1-1c0-0.3,0.2-0.5,0.6-0.5c0.4,0,0.7,0.4,1.1,1.3h0.5L64.8,80c-0.4-1.1-0.9-1.5-1.4-1.5c-0.7,0-1.1,0.5-1.1,1.2
		c0,0.7,0.3,1.3,1,1.6C62.7,81.3,62.3,81.6,62.3,82.1z"/>
	<path class="st0" d="M67.6,66v0.4c0.7,0.2,1,0.6,1,1.2v1h-4.7c-0.8,0-1.1-0.2-1.1-1.2h-0.4v3.8h0.4c0-1.1,0.3-1.2,1.1-1.2h4.7v1.1
		c0,0.7-0.3,1.1-1,1.2v0.4h1v0.1H69v-1.7v-3.4V66h-0.4H67.6z"/>
</g>
</svg>
