<?xml version="1.0" encoding="utf-8"?>
<!-- Generator: Adobe Illustrator 21.0.0, SVG Export Plug-In . SVG Version: 6.00 Build 0)  -->
<svg version="1.1" id="圖層_1" xmlns="http://www.w3.org/2000/svg" xmlns:xlink="http://www.w3.org/1999/xlink" x="0px" y="0px"
	 viewBox="0 0 70 122" style="enable-background:new 0 0 70 122;" xml:space="preserve">
<style type="text/css">
	.st0{fill:#FFFFFF;}
</style>
<g>
	<g id="XMLID_123_">
		
			<rect id="XMLID_202_" x="28.1" y="53.9" transform="matrix(0.7071 -0.7071 0.7071 0.7071 -31.4436 39.3722)" class="st0" width="7.4" height="7.4"/>
		<path id="XMLID_194_" class="st0" d="M60.8,98.2l-0.9-0.7c-0.2-0.1-0.4-0.1-0.6,0l-0.9,0.7l-1.2,0.9h-1.8H45.2V69.4h6.1
			c0,0,3.9,0,4.7,0c0.8-0.8,0.4-1.6,0.1-1.9l-1.2-0.9L54,65.9c-0.2-0.1-0.4-0.1-0.6,0l-0.9,0.7l-1.2,0.9H21.4v1.9h18.1v29.8h-20
			V61.6h-5.6v37.5H0v1.9h57.1c0,0,3.9,0,4.7,0c0.8-0.8,0.4-1.6,0.1-1.9L60.8,98.2z"/>
		<g id="XMLID_189_">
			<path id="XMLID_191_" class="st0" d="M49.4,38.7v6.3h-11V27.8h11v0h4.2V5.1H48v0.7h-9.6h-5.6v1.9v37.3H21.1V34.5h3.5
				c0,0,3.9,0,4.7,0c0.8-0.8,0.4-1.6,0.1-1.9l-1.2-0.9L27.3,31c-0.2-0.1-0.4-0.1-0.6,0l-0.9,0.7l-1.2,0.9h-3.5v-9.8h-5.6v22.1h-4.7
				v-6.3H5.2v6.3v1.9h49.9v-8.2H49.4z M38.5,7.7H48v18.2h-9.6V7.7z"/>
			<path id="XMLID_190_" class="st0" d="M24.6,20.9c0,0,3.9,0,4.7,0c0.8-0.8,0.4-1.6,0.1-1.9l-1.2-0.9l-0.9-0.7
				c-0.2-0.1-0.4-0.1-0.6,0l-0.9,0.7l-1.2,0.9h-3.5v-7.7h3.5c0,0,3.9,0,4.7,0c0.8-0.8,0.4-1.6,0.1-1.9l-1.2-0.9l-0.9-0.7
				c-0.2-0.1-0.4-0.1-0.6,0l-0.9,0.7l-1.2,0.9h-3.5V0.1h-5.6v9.3h-7v1.9h7v7.7H5.1v1.9H24.6L24.6,20.9z"/>
		</g>
		<g id="XMLID_124_">
			<path id="XMLID_137_" class="st0" d="M17.9,120.9c-0.2-0.2-0.4-0.4-0.7-0.7c-0.2-0.3-0.4-0.6-0.6-1c-0.2-0.4-0.4-0.8-0.7-1.2
				c0.2-0.1,0.4-0.2,0.6-0.3c0.2-0.1,0.3-0.3,0.5-0.5c0.1-0.2,0.3-0.4,0.3-0.7c0.1-0.3,0.1-0.6,0.1-0.9c0-0.8-0.2-1.4-0.7-1.7
				c-0.5-0.4-1.2-0.6-2.2-0.6c-0.4,0-0.8,0-1.2,0c-0.4,0-0.8,0-1.1,0.1v8.3h1.6v-3.4v-0.8v-3.3c0.1,0,0.1,0,0.2,0c0.1,0,0.2,0,0.2,0
				c0.2,0,0.5,0,0.6,0.1c0.2,0.1,0.3,0.1,0.5,0.3c0.1,0.1,0.2,0.3,0.3,0.5c0.1,0.2,0.1,0.4,0.1,0.7c0,0.3,0,0.5,0,0.6
				c0,0.2-0.1,0.3-0.1,0.4c0,0.1-0.1,0.2-0.2,0.3c-0.1,0.1-0.1,0.1-0.2,0.2c-0.1,0.1-0.3,0.2-0.5,0.2c-0.1,0-0.3,0.1-0.4,0.1v0.8
				l0.4,0.9c0.3,0.6,0.6,1.1,0.8,1.4c0.2,0.3,0.4,0.6,0.6,0.8c0.2,0.2,0.4,0.3,0.6,0.4c0.2,0.1,0.5,0.1,0.8,0.1c0.2,0,0.4,0,0.6,0
				c0.2,0,0.3-0.1,0.4-0.1v-0.5h-0.1C18.3,121.2,18.1,121.1,17.9,120.9z"/>
			<path id="XMLID_136_" class="st0" d="M25.8,118.7c-0.4-0.2-0.7-0.4-1.2-0.5c-0.3-0.1-0.5-0.1-0.7-0.3c-0.2-0.2-0.3-0.5-0.1-0.7
				c0.1-0.1,0.2-0.2,0.4-0.2c0.3,0,0.6,0.1,0.9,0.1c0.1,0,0.9,0.2,0.9,0.3l0.2-1.1c-0.2,0-0.3,0-0.5-0.1c-0.4,0-0.8-0.1-1.2-0.1
				c-0.4,0-0.7,0.1-1,0.2c-0.5,0.3-0.9,0.7-1,1.3c0,0.1,0,0.1,0,0.2c0,0.3,0.1,0.6,0.2,0.8c0.1,0.1,0.2,0.2,0.3,0.3
				c0.1,0.1,0.2,0.2,0.4,0.2c0.3,0.2,0.7,0.3,1,0.4c0.2,0.1,0.3,0.1,0.4,0.2c0.1,0.1,0.2,0.2,0.3,0.3c0.1,0.3,0.1,0.6-0.2,0.8
				c-0.2,0.1-0.4,0.2-0.6,0.1c-0.6-0.1-1.2-0.4-1.7-0.8c-0.1,0.3-0.3,0.7-0.4,1l0,0.1c0,0,0.2,0.1,0.2,0.1c1.1,0.4,2.4,0.6,3.3-0.2
				c0.4-0.4,0.7-0.9,0.7-1.5C26.5,119.3,26.2,118.9,25.8,118.7z"/>
			<path id="XMLID_135_" class="st0" d="M38.5,116.5c-0.1-0.1-0.3-0.2-0.5-0.3c-0.2-0.1-0.4-0.1-0.6-0.1c-0.2,0-0.4,0-0.6,0.1
				c-0.2,0.1-0.4,0.1-0.6,0.2c-0.1,0.1-0.2,0.1-0.4,0.2l0,0.7c0,0,0.1,0,0.1,0c0.1,0,0.2-0.1,0.3-0.1c0.1,0,0.2,0,0.3,0
				c0.3,0,0.4,0.1,0.5,0.2c0.1,0.2,0.2,0.4,0.2,0.7v3.7h1.6v-4c0-0.3,0-0.5-0.1-0.7C38.7,116.8,38.6,116.6,38.5,116.5z"/>
			<rect id="XMLID_134_" x="40.7" y="116.7" class="st0" width="1.6" height="5.1"/>
			<polygon id="XMLID_133_" class="st0" points="40.5,115 41.4,116 42.5,115 41.4,113.9 			"/>
			<rect id="XMLID_132_" x="19.4" y="116.7" class="st0" width="1.6" height="5.1"/>
			<polygon id="XMLID_131_" class="st0" points="19.2,115 20.2,116 21.2,115 20.2,113.9 			"/>
			<polygon id="XMLID_130_" class="st0" points="44.1,121.8 45.6,121.8 45.6,113 44.1,113.4 			"/>
			<path id="XMLID_129_" class="st0" d="M33.8,112.6c0,0.4,0,0.7,0,1.1c0,0,0,0,0,0.1v8h1.6v-8h0c0-0.5,0-0.9,0-1.4
				C34.9,112.4,34.3,112.5,33.8,112.6z"/>
			<polygon id="XMLID_128_" class="st0" points="49,120.9 49,112.3 47.4,112.6 47.4,121.8 48.8,121.8 49,121.8 50.1,121.8 
				50.1,120.9 			"/>
			<path id="XMLID_125_" class="st0" d="M32.4,120.3c-0.6,0.6-1.3,1.1-2.2,0.8c-0.4-0.2-0.7-0.5-0.9-0.8c-0.1-0.2-0.2-0.4-0.3-0.7
				l3.1-0.4c0.3,0,0.3-0.1,0.3-0.3c0-0.3-0.1-0.7-0.1-1c-0.1-0.4-0.3-0.8-0.7-1.1c-0.4-0.3-0.9-0.5-1.4-0.5c-0.7,0-1.4,0.2-1.9,0.7
				c-0.6,0.6-0.9,1.5-0.8,2.4c0.1,1.6,1.3,2.6,3,2.5c0.4,0,0.9-0.2,1.2-0.4c0.2-0.1,0.4-0.2,0.5-0.4c0,0,0.5-0.4,0.4-0.5
				C32.6,120.5,32.5,120.4,32.4,120.3z M29.8,117.4c1.3-0.2,1.2,1.1,1.2,1.1l-2,0.3C29,118.7,28.9,117.5,29.8,117.4z"/>
		</g>
	</g>
	<g id="XMLID_139_">
		<path id="XMLID_152_" class="st0" d="M69.5,41.3v-3.1h-0.4c0,0.7-0.2,0.8-1,0.8h-4.1c-0.8,0-1-0.1-1-0.9h-0.4v3.6h0.4
			c0-1.1,0.2-1.3,1.1-1.3h1.6h0.5h2.7c0.1,0,0.2,0.1,0.2,0.2v0.7c0,1-0.5,1.4-1.4,1.4c-1,0-1.5-0.5-1.5-1.7v-0.4l-0.5,0v0.6
			c0,1.9,0.7,2.9,2,2.9C68.8,44,69.5,43.1,69.5,41.3z"/>
		<path id="XMLID_151_" class="st0" d="M68.6,45.8c0,0.4,0.3,0.7,0.7,0.7c0.4,0,0.7-0.3,0.7-0.7c0-0.4-0.3-0.7-0.7-0.7
			C68.9,45.2,68.6,45.5,68.6,45.8z"/>
		<path id="XMLID_150_" class="st0" d="M64,46.5h3.4l-0.3-2.1h-0.3c0,0.5-0.1,0.7-0.4,0.8c-0.2,0-0.6,0.1-1.3,0.1H64
			c-0.8,0-1-0.1-1-0.8h-0.4v2.8h0.4C62.9,46.6,63.1,46.5,64,46.5z"/>
		<path id="XMLID_149_" class="st0" d="M63,50.1c0-0.4,0.3-0.5,1-0.5h2.8v1h0.5v-1h1.1v-0.5c-0.5-0.2-1-0.7-1.2-1.4h-0.4v0.7h-3.3
			c-0.7,0-1.1,0.5-1.1,1.3c0,0.6,0.2,1,0.6,1.2l0.3-0.2C63.1,50.5,63,50.3,63,50.1z"/>
		<path id="XMLID_148_" class="st0" d="M62.9,55.7c0-0.2,0.3-0.3,0.8-0.3h2c1.1,0,1.6-0.5,1.6-1.9c0-1.3-0.4-1.9-0.9-1.9
			c-0.4,0-0.6,0.2-0.6,0.5c0,0.3,0.2,0.5,0.5,0.6c0.4,0.2,0.6,0.3,0.6,0.6c0,0.5-0.3,0.8-1,0.8h-0.4H65h-0.9c-0.5,0-1-0.4-1-1
			c0-0.3,0.2-0.5,0.6-0.5c0.4,0,0.7,0.4,1.1,1.3l0.5,0l-0.5-1.1c-0.4-1.1-0.9-1.5-1.4-1.5c-0.7,0-1.1,0.5-1.1,1.2
			c0,0.7,0.3,1.3,1,1.6v0c-0.6,0-1,0.3-1,0.8c0,0.4,0.2,0.8,0.5,1l0.3-0.1C63,55.9,62.9,55.8,62.9,55.7z"/>
		<polygon id="XMLID_147_" class="st0" points="66.1,62.6 65,61.4 66.1,60.3 65.5,59.7 64.4,60.8 63.2,59.7 62.6,60.3 63.7,61.4 
			62.6,62.6 63.2,63.2 64.4,62.1 65.5,63.2 		"/>
		<path id="XMLID_144_" class="st0" d="M67.3,75.4c0-1.4-1-2.6-2.4-2.6c-1.5,0-2.5,1.2-2.5,2.6c0,1.4,1,2.6,2.5,2.6
			C66.3,78,67.3,76.8,67.3,75.4z M62.9,75.4c0-0.7,0.8-1.2,1.9-1.2c1.1,0,1.9,0.5,1.9,1.2c0,0.7-0.8,1.2-1.9,1.2
			C63.7,76.6,62.9,76.1,62.9,75.4z"/>
		<path id="XMLID_143_" class="st0" d="M65.3,86c0.4-0.7,0.6-1,1-1c0.3,0,0.5,0.2,0.5,0.5c0,0.4-0.3,0.7-1,1v0.4h1.4v-0.2L67,86.5
			c0.2-0.3,0.3-0.7,0.3-1c0-0.8-0.6-1.5-1.4-1.5c-0.6,0-1.1,0.4-1.6,1.3c-0.4,0.7-0.7,1-1,1c-0.3,0-0.5-0.3-0.5-0.7
			c0-0.6,0.4-1,1.2-1.2V84h-1.6v0.3l0.3,0.2c-0.3,0.3-0.4,0.8-0.4,1.3c0,1,0.5,1.6,1.4,1.6C64.4,87.3,64.8,87,65.3,86z"/>
		<path id="XMLID_142_" class="st0" d="M63.2,90.9c-0.2-0.1-0.3-0.3-0.3-0.5c0-0.4,0.3-0.5,1-0.5h2.8v1h0.5v-1h1.1v-0.5
			c-0.5-0.2-1-0.7-1.2-1.4h-0.4v0.7h-3.3c-0.7,0-1.1,0.5-1.1,1.3c0,0.6,0.2,1,0.6,1.2L63.2,90.9z"/>
		<path id="XMLID_141_" class="st0" d="M63,82.9c0-0.2,0.3-0.3,0.8-0.3h2c1.1,0,1.6-0.5,1.6-1.9c0-1.3-0.4-1.9-0.9-1.9
			c-0.4,0-0.6,0.2-0.6,0.5c0,0.3,0.2,0.5,0.5,0.6c0.4,0.2,0.6,0.3,0.6,0.6c0,0.5-0.3,0.8-1,0.8h-0.4H65h-0.9c-0.5,0-1-0.4-1-1
			c0-0.3,0.2-0.5,0.6-0.5c0.4,0,0.7,0.4,1.1,1.3l0.5,0l-0.5-1.1c-0.4-1.1-0.9-1.5-1.4-1.5c-0.7,0-1.1,0.5-1.1,1.2
			c0,0.7,0.3,1.3,1,1.6v0c-0.6,0-1,0.3-1,0.8c0,0.4,0.2,0.8,0.5,1l0.3-0.1C63,83.2,63,83.1,63,82.9z"/>
		<path id="XMLID_140_" class="st0" d="M68.6,72.8H69v-1.7v-3.4v-1.7h-0.4h-1l0,0.4c0.7,0.2,1,0.6,1,1.2v1h-4.7
			c-0.8,0-1.1-0.2-1.1-1.2h-0.4v3.8h0.4c0-1.1,0.3-1.2,1.1-1.2h4.7v1.1c0,0.7-0.3,1.1-1,1.2l0,0.4H68.6z"/>
	</g>
</g>
</svg>
