<?xml version="1.0" encoding="utf-8"?>
<!-- Generator: Adobe Illustrator 21.0.0, SVG Export Plug-In . SVG Version: 6.00 Build 0)  -->
<svg version="1.1" id="圖層_1" xmlns="http://www.w3.org/2000/svg" xmlns:xlink="http://www.w3.org/1999/xlink" x="0px" y="0px"
	 viewBox="0 0 550 550" style="enable-background:new 0 0 550 550;" xml:space="preserve">
<style type="text/css">
	.st0{fill:#0F5756;}
</style>
<g>
	<path class="st0" d="M275,2.5c36.8,0,72.5,7.2,106.1,21.4c32.4,13.7,61.6,33.4,86.6,58.4c25,25,44.7,54.2,58.4,86.6
		c14.2,33.6,21.4,69.3,21.4,106.1s-7.2,72.5-21.4,106.1c-13.7,32.4-33.4,61.6-58.4,86.6c-25,25-54.2,44.7-86.6,58.4
		c-33.6,14.2-69.3,21.4-106.1,21.4s-72.5-7.2-106.1-21.4c-32.4-13.7-61.6-33.4-86.6-58.4c-25-25-44.7-54.2-58.4-86.6
		C9.7,347.5,2.5,311.8,2.5,275c0-46.7,12-92.8,34.8-133.3c22.1-39.3,53.8-72.8,91.9-96.9C172.7,17.1,223.2,2.5,275,2.5 M275,0
		c-54.1,0-104.6,15.6-147.2,42.7C51,91.4,0,177.3,0,275c0,151.9,123.1,275,275,275s275-123.1,275-275S426.9,0,275,0L275,0z"/>
</g>
</svg>
